<?xml version="1.0" standalone="no"?>
<!DOCTYPE svg PUBLIC "-//W3C//DTD SVG 20010904//EN"
 "http://www.w3.org/TR/2001/REC-SVG-20010904/DTD/svg10.dtd">
<svg version="1.0" xmlns="http://www.w3.org/2000/svg"
 width="512.000000pt" height="512.000000pt" viewBox="0 0 512.000000 512.000000"
 preserveAspectRatio="xMidYMid meet">

<g transform="translate(0.000000,512.000000) scale(0.100000,-0.100000)"
fill="#FFFFFF" stroke="none">
<path d="M2459 5092 c-98 -51 -129 -126 -129 -312 l0 -85 -82 82 c-125 124
-206 149 -314 99 -82 -38 -125 -108 -125 -202 0 -91 16 -113 277 -374 l244
-246 0 -66 0 -66 -41 10 c-92 24 -209 -36 -250 -126 -23 -50 -24 -134 -4 -183
9 -22 73 -95 155 -178 l140 -141 0 -173 c0 -153 -2 -172 -16 -167 -12 5 -271
152 -282 161 -1 1 -25 87 -53 190 -29 111 -59 201 -73 222 -76 111 -225 132
-325 46 -41 -35 -81 -98 -81 -128 0 -21 -5 -20 -66 16 -46 26 -55 36 -65 72
-170 641 -176 657 -239 710 -101 86 -269 50 -332 -72 -36 -69 -36 -117 1 -251
17 -57 29 -105 28 -106 -1 -1 -29 14 -62 33 -33 20 -85 49 -116 64 -217 111
-425 -120 -293 -323 17 -27 55 -56 129 -99 58 -34 105 -64 105 -68 0 -4 -50
-20 -112 -35 -165 -44 -226 -100 -236 -221 -8 -94 37 -174 122 -217 71 -36
114 -30 467 65 l325 88 56 -32 57 -32 -34 -40 c-44 -52 -58 -95 -53 -167 5
-70 39 -127 99 -167 70 -46 139 -43 349 15 l175 48 148 -85 c81 -47 147 -88
147 -91 0 -3 -66 -44 -147 -91 l-148 -85 -175 48 c-210 58 -279 61 -349 15
-60 -40 -94 -97 -99 -167 -5 -72 11 -122 54 -169 l33 -37 -56 -33 -56 -32 -97
26 c-125 32 -153 32 -179 -1 -53 -67 -15 -103 156 -149 76 -20 139 -32 150
-28 39 15 309 175 321 191 18 23 15 76 -5 95 -10 8 -45 23 -78 32 -33 9 -68
26 -77 37 -40 46 -8 118 52 118 16 0 113 -23 214 -50 101 -28 193 -50 204 -50
20 0 459 247 495 278 23 20 23 84 0 104 -36 31 -476 278 -495 278 -11 0 -103
-23 -205 -50 -101 -28 -198 -50 -214 -50 -57 0 -89 67 -55 116 9 13 40 28 81
39 70 19 95 41 95 85 0 15 -6 34 -13 43 -11 15 -281 175 -320 190 -11 4 -161
-31 -372 -88 -373 -100 -390 -103 -414 -56 -16 30 -13 69 7 89 11 11 98 40
221 72 117 32 210 62 222 73 27 25 25 78 -3 104 -13 11 -100 64 -195 118 -127
73 -175 106 -183 125 -20 49 16 100 70 100 12 0 104 -47 204 -105 107 -61 194
-105 209 -105 36 0 67 33 67 70 0 16 -22 113 -50 214 -27 101 -50 195 -50 208
0 31 39 68 72 68 57 0 63 -14 162 -383 63 -236 100 -355 112 -367 11 -10 87
-57 170 -105 160 -91 181 -97 220 -54 13 15 15 29 10 66 -20 143 -20 138 9
161 35 28 57 28 89 0 21 -19 36 -61 80 -227 31 -113 61 -210 68 -217 7 -6 116
-71 241 -143 244 -140 276 -151 313 -110 18 20 19 40 19 305 l0 283 -158 159
c-154 155 -158 161 -155 197 2 27 11 44 30 58 36 27 66 17 133 -43 30 -28 64
-50 75 -50 10 0 32 11 47 24 l28 24 0 191 0 191 -257 257 c-141 142 -261 269
-266 283 -12 31 7 84 33 94 49 19 65 8 230 -154 104 -103 170 -160 183 -160
12 0 34 11 49 24 l28 24 5 231 c5 215 6 231 25 245 25 19 64 20 88 2 30 -23
37 -74 37 -283 l0 -202 26 -20 c15 -12 36 -21 47 -21 12 0 82 61 182 160 168
165 186 176 235 150 28 -15 40 -61 25 -96 -7 -16 -126 -141 -264 -279 l-251
-250 0 -197 0 -197 26 -20 c39 -31 58 -26 119 29 67 60 97 70 133 43 19 -14
28 -31 30 -58 3 -36 -1 -42 -152 -194 l-156 -157 0 -290 c0 -400 -16 -391 336
-187 143 83 239 144 245 157 5 12 31 107 59 211 41 155 55 194 76 213 32 28
54 28 89 0 30 -23 29 -11 9 -168 -5 -36 -2 -48 12 -62 43 -38 61 -33 219 58
83 47 158 94 169 104 12 12 49 132 112 367 99 370 105 383 163 383 33 0 71
-37 71 -69 0 -13 -22 -106 -50 -208 -27 -101 -50 -198 -50 -214 0 -36 32 -69
67 -69 15 0 102 44 209 105 100 58 192 105 204 105 54 0 90 -51 70 -100 -8
-19 -56 -52 -183 -125 -95 -54 -182 -107 -194 -118 -28 -25 -31 -79 -5 -105
10 -10 93 -37 202 -66 102 -27 199 -54 217 -62 56 -22 56 -105 1 -132 -24 -11
-63 -3 -382 83 -215 57 -362 92 -373 88 -39 -15 -309 -175 -320 -191 -19 -23
-16 -76 5 -95 9 -8 44 -23 77 -32 33 -9 68 -26 78 -37 39 -45 7 -118 -52 -118
-16 0 -113 23 -214 50 -102 28 -194 50 -205 50 -19 0 -459 -247 -494 -278 -11
-9 -18 -29 -18 -52 0 -23 7 -43 18 -52 35 -31 475 -278 494 -278 11 0 103 22
205 50 101 27 198 50 214 50 59 0 91 -73 52 -118 -10 -11 -45 -28 -78 -37 -33
-9 -68 -24 -77 -32 -21 -19 -24 -72 -5 -95 11 -16 281 -176 320 -191 11 -4
158 30 372 88 373 100 390 102 414 56 15 -27 14 -63 -2 -85 -9 -13 -82 -37
-228 -77 -139 -38 -218 -64 -226 -76 -21 -27 -16 -77 10 -100 12 -11 99 -64
194 -118 127 -73 175 -106 183 -125 20 -49 -16 -100 -70 -100 -12 0 -104 47
-204 105 -107 61 -194 105 -209 105 -35 0 -67 -33 -67 -69 0 -16 23 -113 50
-214 28 -102 50 -196 50 -209 0 -31 -39 -68 -72 -68 -57 0 -63 14 -162 383
-63 236 -100 355 -112 367 -11 10 -87 57 -170 105 -160 91 -181 97 -220 54
-13 -15 -15 -29 -10 -66 20 -143 20 -138 -9 -161 -35 -28 -57 -28 -89 0 -21
19 -35 58 -76 213 -28 105 -54 199 -59 211 -14 32 -473 294 -515 294 -65 0
-66 -4 -66 -325 l0 -289 156 -157 c151 -152 155 -158 152 -194 -2 -27 -11 -44
-30 -58 -36 -27 -66 -17 -133 43 -61 55 -80 60 -119 29 l-26 -20 0 -197 0
-197 251 -250 c138 -138 257 -263 264 -279 15 -35 3 -81 -25 -96 -49 -26 -67
-15 -235 150 -100 99 -170 160 -182 160 -11 0 -32 -9 -47 -21 l-26 -20 0 -202
c0 -209 -7 -260 -37 -283 -24 -18 -63 -17 -88 2 -19 14 -20 30 -25 245 l-5
231 -28 24 c-15 13 -37 24 -49 24 -13 0 -79 -57 -183 -160 -165 -162 -181
-173 -230 -154 -26 10 -45 63 -33 94 5 14 125 141 266 283 l257 257 0 191 0
191 -28 24 c-15 13 -37 24 -47 24 -11 0 -45 -22 -75 -50 -67 -60 -97 -70 -133
-43 -19 14 -28 31 -30 58 -3 36 1 42 155 197 l158 159 0 283 c0 400 12 393
-332 195 -126 -72 -234 -137 -241 -143 -7 -7 -37 -104 -68 -217 -44 -166 -59
-208 -80 -227 -32 -28 -54 -28 -89 0 -25 19 -27 26 -21 67 19 150 19 145 0
163 -43 38 -61 33 -219 -58 -82 -47 -158 -94 -169 -104 -12 -12 -49 -132 -112
-367 -99 -370 -105 -383 -163 -383 -33 0 -71 37 -71 69 0 12 23 106 50 207 28
101 50 198 50 214 0 37 -31 70 -67 70 -15 0 -102 -44 -209 -105 -100 -58 -192
-105 -204 -105 -54 0 -90 51 -70 100 8 19 56 52 183 125 95 54 182 107 195
118 25 23 30 73 9 100 -8 12 -87 38 -226 76 -146 40 -219 64 -228 77 -28 38
-10 98 33 115 19 7 49 3 119 -16 70 -19 99 -23 118 -16 49 19 63 83 24 119
-31 29 -214 75 -264 66 -157 -28 -235 -178 -169 -321 35 -74 81 -104 215 -139
61 -16 111 -31 111 -35 0 -4 -47 -34 -105 -68 -113 -66 -144 -100 -165 -180
-35 -132 75 -271 213 -271 58 0 94 14 202 76 49 29 91 51 92 50 1 -1 -11 -49
-28 -106 -37 -134 -37 -182 -1 -251 63 -122 231 -158 332 -72 63 53 69 69 239
710 10 36 19 46 65 72 61 36 66 37 66 16 0 -30 40 -93 81 -128 100 -86 249
-65 325 46 14 21 44 111 73 222 28 103 52 189 53 190 11 9 270 156 282 161 14
5 16 -14 16 -167 l0 -173 -140 -141 c-82 -83 -146 -156 -155 -178 -20 -49 -19
-133 4 -183 41 -90 158 -150 250 -126 l41 10 0 -66 0 -66 -244 -246 c-261
-261 -277 -283 -277 -374 0 -94 43 -164 125 -202 108 -50 189 -25 314 99 l82
82 0 -85 c0 -186 31 -261 129 -312 71 -37 129 -37 202 -1 97 50 129 126 129
312 l0 85 84 -82 c126 -123 205 -148 312 -98 82 38 125 108 125 202 0 91 -16
113 -277 374 l-244 246 0 66 0 66 41 -10 c92 -24 209 36 250 126 23 51 24 131
3 182 -10 24 -69 92 -155 179 l-139 141 0 173 c0 153 2 172 16 167 12 -5 271
-152 282 -161 1 -1 25 -87 53 -190 29 -111 59 -201 73 -222 76 -111 225 -132
325 -46 41 35 81 98 81 128 0 21 5 20 66 -16 46 -26 55 -36 65 -72 170 -641
176 -657 239 -710 101 -86 269 -50 332 72 36 69 36 117 -1 251 -17 57 -29 106
-27 107 1 1 43 -22 93 -51 107 -63 141 -76 200 -76 138 0 248 139 213 271 -21
80 -52 114 -165 180 -58 34 -105 64 -105 68 0 4 50 19 111 35 134 35 180 65
215 139 54 116 12 242 -99 299 -72 36 -115 30 -468 -65 l-325 -88 -57 32 -56
33 33 37 c91 100 69 260 -45 336 -70 46 -139 43 -349 -15 l-175 -48 -147 85
c-82 47 -148 88 -148 91 0 3 66 44 148 91 l147 85 175 -48 c210 -58 279 -61
349 -15 60 40 94 97 99 167 5 72 -11 122 -54 169 l-33 37 56 33 57 32 325 -88
c352 -95 397 -101 466 -65 114 58 155 181 101 299 -35 74 -81 104 -215 139
-61 16 -111 31 -111 35 0 4 47 34 105 68 113 66 144 100 165 180 35 135 -75
271 -219 271 -58 0 -74 -6 -196 -77 -49 -29 -90 -51 -91 -50 -2 1 10 50 27
107 37 134 37 182 1 251 -63 122 -231 158 -332 72 -63 -53 -69 -69 -239 -710
-10 -36 -19 -46 -65 -72 -61 -36 -66 -37 -66 -16 0 30 -40 93 -81 128 -100 86
-249 65 -325 -46 -14 -21 -44 -111 -73 -222 -28 -103 -52 -189 -53 -190 -11
-9 -270 -156 -282 -161 -14 -5 -16 14 -16 167 l0 173 139 141 c86 87 145 155
155 179 21 51 20 131 -3 182 -41 90 -158 150 -250 126 l-41 -10 0 66 0 66 244
246 c261 261 277 283 277 374 0 94 -43 164 -125 202 -107 50 -186 25 -312 -98
l-84 -82 0 85 c0 186 -32 262 -129 312 -73 36 -131 36 -202 -1z"/>
</g>
</svg>
