<?xml version="1.0" standalone="no"?>
<!DOCTYPE svg PUBLIC "-//W3C//DTD SVG 20010904//EN"
 "http://www.w3.org/TR/2001/REC-SVG-20010904/DTD/svg10.dtd">
<svg version="1.0" xmlns="http://www.w3.org/2000/svg"
 width="512.000000pt" height="512.000000pt" viewBox="0 0 512.000000 512.000000"
 preserveAspectRatio="xMidYMid meet">

<g transform="translate(0.000000,512.000000) scale(0.100000,-0.100000)"
fill="#FFFFFF" stroke="none">
<path d="M1676 5105 c-59 -21 -114 -80 -132 -143 -30 -102 13 -200 111 -257
17 -10 17 -24 1 -310 -9 -165 -19 -336 -23 -381 l-5 -80 -68 -18 c-163 -42
-311 -177 -373 -341 l-22 -60 -5 -1107 -5 -1106 -29 -23 c-40 -31 -66 -93 -66
-159 0 -82 15 -123 60 -164 l40 -36 0 -77 c0 -171 82 -333 214 -428 51 -36 54
-40 40 -56 -42 -47 -57 -178 -29 -246 21 -50 42 -72 90 -94 38 -18 92 -19
1085 -19 993 0 1047 1 1085 19 22 10 48 27 57 37 60 68 65 227 9 295 -18 23
-18 23 21 51 142 104 218 244 226 422 l4 98 39 35 c44 40 59 82 59 163 0 67
-27 130 -69 161 l-31 23 0 666 c0 656 0 667 -20 685 -28 25 -76 23 -103 -4
l-22 -22 -3 -654 -2 -655 -1250 0 -1250 0 2 1087 3 1088 27 57 c55 118 172
207 298 227 89 15 1751 15 1840 0 126 -20 243 -109 298 -227 27 -57 27 -59 32
-343 5 -264 7 -289 24 -308 25 -28 79 -28 107 0 19 19 20 29 17 317 -3 279 -4
301 -25 357 -65 170 -220 308 -388 346 -38 8 -55 17 -55 28 0 9 -9 165 -20
346 -26 432 -27 394 21 428 75 52 109 137 89 225 -15 68 -84 144 -145 161 -28
7 -302 11 -880 11 -689 -1 -847 -3 -879 -15z m1739 -160 c14 -13 25 -33 25
-45 0 -12 -11 -32 -25 -45 l-24 -25 -831 0 -831 0 -24 25 c-14 13 -25 34 -25
45 0 12 11 32 25 45 l24 25 831 0 831 0 24 -25z m-1455 -314 c0 -42 4 -53 26
-70 30 -24 43 -26 77 -10 30 14 47 48 47 94 l0 35 450 0 450 0 0 -370 0 -370
-38 0 -38 0 -53 111 c-39 82 -61 115 -82 128 l-29 16 0 108 0 107 25 0 c62 0
89 90 39 129 -25 20 -39 21 -274 21 -235 0 -249 -1 -274 -21 -50 -39 -23 -129
39 -129 l25 0 0 -107 0 -108 -30 -17 c-23 -13 -42 -43 -82 -128 l-51 -110 -38
0 -38 0 -3 181 c-3 176 -4 181 -27 200 -31 25 -69 24 -98 -3 -22 -21 -23 -26
-23 -200 l0 -178 -90 0 c-65 0 -90 3 -90 13 0 6 9 158 20 337 11 179 20 340
20 358 l0 32 70 0 70 0 0 -49z m1340 17 c0 -18 9 -179 20 -358 11 -179 20
-331 20 -337 0 -10 -25 -13 -90 -13 l-90 0 0 370 0 370 70 0 70 0 0 -32z
m-680 -343 l0 -105 -60 0 -60 0 0 105 0 105 60 0 60 0 0 -105z m123 -310 l27
-55 -210 0 -210 0 27 55 27 55 156 0 156 0 27 -55z m1155 -2834 c9 -5 12 -24
10 -52 l-3 -44 -1092 -5 c-1020 -5 -1093 -6 -1110 -22 -26 -26 -22 -86 6 -109
22 -18 62 -19 1063 -19 l1041 0 -5 -82 c-10 -188 -144 -337 -328 -367 -89 -15
-1751 -15 -1840 0 -126 20 -243 109 -298 227 -20 43 -27 77 -30 140 l-4 82 60
0 c75 0 112 25 112 74 0 58 -26 70 -153 76 l-112 5 -3 44 c-2 28 1 47 10 52
17 11 2659 11 2676 0z m-318 -888 c16 -20 20 -38 18 -72 l-3 -46 -1035 0
-1035 0 -3 46 c-2 34 2 52 18 72 l21 27 999 0 999 0 21 -27z"/>
<path d="M1813 2765 c-106 -33 -205 -123 -244 -223 -31 -80 -31 -204 0 -284
68 -176 275 -276 456 -223 64 18 159 76 175 105 19 35 12 77 -16 99 -35 27
-54 26 -95 -4 -93 -68 -176 -82 -259 -44 -92 42 -134 107 -134 209 0 136 96
230 235 230 46 0 100 -23 158 -65 41 -30 60 -31 95 -4 28 22 35 64 16 99 -15
28 -109 86 -169 104 -65 19 -160 20 -218 1z"/>
<path d="M2376 2738 c-14 -19 -16 -69 -16 -338 0 -358 0 -360 69 -360 65 0 75
22 79 161 l4 119 169 0 169 0 0 -114 c0 -99 3 -117 21 -140 26 -33 79 -36 109
-6 19 19 20 33 20 340 0 307 -1 321 -20 340 -30 30 -83 27 -109 -6 -19 -24
-21 -40 -21 -145 l0 -119 -169 0 -169 0 -4 124 c-2 105 -6 127 -22 145 -27 30
-89 29 -110 -1z"/>
<path d="M3307 2469 c-25 -15 -187 -342 -187 -379 0 -17 9 -39 20 -50 18 -18
33 -20 155 -20 l135 0 0 -135 c0 -122 2 -137 20 -155 30 -30 83 -27 109 6 20
25 21 39 21 279 0 240 -1 254 -21 279 -15 19 -30 26 -55 26 -52 0 -74 -28 -74
-95 l0 -55 -55 0 c-30 0 -55 2 -55 5 0 3 23 50 50 105 28 55 50 112 50 128 0
54 -65 89 -113 61z"/>
</g>
</svg>
