<?xml version="1.0" standalone="no"?>
<!DOCTYPE svg PUBLIC "-//W3C//DTD SVG 20010904//EN"
 "http://www.w3.org/TR/2001/REC-SVG-20010904/DTD/svg10.dtd">
<svg version="1.0" xmlns="http://www.w3.org/2000/svg"
 width="512.000000pt" height="512.000000pt" viewBox="0 0 512.000000 512.000000"
 preserveAspectRatio="xMidYMid meet">

<g transform="translate(0.000000,512.000000) scale(0.100000,-0.100000)"
fill="#FFFFFF" stroke="none">
<path d="M4421 4999 c-56 -17 -109 -59 -233 -187 -147 -150 -148 -153 -51
-253 l67 -70 -226 -226 -226 -226 -54 47 c-65 57 -190 120 -283 142 -90 22
-249 22 -336 1 -82 -20 -161 -54 -236 -103 -38 -24 -462 -441 -1193 -1171
l-1136 -1133 -33 11 c-43 15 -128 6 -178 -20 -46 -23 -89 -70 -110 -118 -19
-47 -16 -140 6 -188 22 -47 1300 -1333 1353 -1362 45 -24 170 -24 214 -1 41
22 90 72 110 110 22 43 29 128 14 173 l-12 38 1135 1136 c624 625 1149 1158
1167 1184 82 123 120 250 120 402 0 149 -32 263 -108 385 -29 47 -4 25 164
-142 195 -192 228 -218 271 -204 11 3 78 66 151 139 108 109 132 139 132 162
0 24 -38 67 -235 265 -129 129 -235 240 -235 245 0 5 23 33 52 62 l52 53 66
-65 c43 -43 76 -67 98 -71 31 -6 38 -1 173 132 77 77 150 157 162 179 28 53
29 153 2 210 -26 55 -387 416 -444 445 -51 25 -131 34 -180 19z m290 -336
c124 -123 190 -196 194 -214 9 -40 -12 -73 -104 -164 l-81 -80 -228 228 -227
227 96 95 c137 135 117 140 350 -92z m-331 -348 l55 -55 -228 -228 -227 -227
-57 58 -58 57 225 225 c124 124 227 225 230 225 3 0 30 -25 60 -55z m-965
-257 c113 -37 162 -74 374 -282 222 -219 277 -288 317 -392 32 -84 43 -232 24
-315 -14 -63 -59 -169 -71 -169 -5 0 -18 19 -30 43 -40 77 -164 260 -246 362
-99 123 -307 330 -428 427 -92 73 -256 185 -346 235 -27 16 -49 32 -49 36 0
15 111 59 183 72 87 16 190 10 272 -17z m1105 -333 l195 -195 -58 -57 -57 -58
-197 197 -198 198 55 55 c30 30 57 55 60 55 3 0 93 -88 200 -195z m-1456 21
c301 -196 599 -504 785 -813 33 -56 69 -118 78 -138 l17 -36 -758 -758 -758
-758 -90 48 c-204 112 -353 224 -542 408 -192 188 -337 376 -453 589 l-46 84
759 759 758 758 84 -45 c46 -25 121 -69 166 -98z m-1828 -1593 c233 -400 615
-778 998 -988 36 -20 66 -40 66 -44 0 -3 -68 -74 -150 -156 l-150 -150 -565
565 -565 565 152 152 c84 84 154 153 155 153 1 0 27 -44 59 -97z m591 -1510
l-57 -58 -565 565 -565 565 57 57 58 58 565 -565 565 -565 -58 -57z m-730 394
c590 -589 643 -645 643 -675 0 -44 -38 -82 -82 -82 -30 0 -86 53 -675 643
-601 600 -643 644 -643 676 0 48 33 81 79 81 34 0 68 -33 678 -643z"/>
<path d="M2500 2955 l-55 -55 130 -130 130 -130 -258 0 -258 0 -24 -25 c-16
-16 -25 -35 -25 -57 0 -28 23 -55 210 -243 l210 -210 57 57 58 58 -130 130
-130 130 258 0 258 0 24 25 c16 16 25 35 25 57 0 28 -23 55 -207 240 -114 114
-210 208 -213 208 -3 0 -30 -25 -60 -55z"/>
</g>
</svg>
